<svg width="26" height="30" viewBox="0 0 26 30" fill="none" xmlns="http://www.w3.org/2000/svg">
<path fill-rule="evenodd" clip-rule="evenodd" d="M13 2.5C11.6739 2.5 10.4021 3.02678 9.46447 3.96447C8.52678 4.90215 8 6.17392 8 7.5C8 8.82608 8.52678 10.0979 9.46447 11.0355C10.4021 11.9732 11.6739 12.5 13 12.5C14.3261 12.5 15.5979 11.9732 16.5355 11.0355C17.4732 10.0979 18 8.82608 18 7.5C18 6.17392 17.4732 4.90215 16.5355 3.96447C15.5979 3.02678 14.3261 2.5 13 2.5ZM8.05025 2.55025C9.36301 1.2375 11.1435 0.5 13 0.5C14.8565 0.5 16.637 1.2375 17.9497 2.55025C19.2625 3.86301 20 5.64348 20 7.5C20 9.35652 19.2625 11.137 17.9497 12.4497C16.637 13.7625 14.8565 14.5 13 14.5C11.1435 14.5 9.36301 13.7625 8.05025 12.4497C6.7375 11.137 6 9.35652 6 7.5C6 5.64348 6.7375 3.86301 8.05025 2.55025Z" fill="#403D39"/>
<path fill-rule="evenodd" clip-rule="evenodd" d="M10 19C7.87827 19 5.84344 19.8429 4.34315 21.3431C2.84286 22.8434 2 24.8783 2 27V28.5C2 29.0523 1.55228 29.5 1 29.5C0.447715 29.5 0 29.0523 0 28.5V27C0 24.3478 1.05357 21.8043 2.92893 19.9289C4.8043 18.0536 7.34784 17 10 17H16C18.6522 17 21.1957 18.0536 23.0711 19.9289C24.9464 21.8043 26 24.3478 26 27V28.5C26 29.0523 25.5523 29.5 25 29.5C24.4477 29.5 24 29.0523 24 28.5V27C24 24.8783 23.1571 22.8434 21.6569 21.3431C20.1566 19.8429 18.1217 19 16 19H10Z" fill="#403D39"/>
</svg>
