<svg width="30" height="32" viewBox="0 0 30 32" fill="none" xmlns="http://www.w3.org/2000/svg">
<path d="M2.96549 12.76C3.02583 12.0082 3.36712 11.3067 3.9214 10.7953C4.47568 10.2838 5.20228 9.99985 5.95649 10H24.0435C24.7977 9.99985 25.5243 10.2838 26.0786 10.7953C26.6329 11.3067 26.9742 12.0082 27.0345 12.76L28.239 27.76C28.2721 28.1728 28.2194 28.588 28.0842 28.9794C27.949 29.3708 27.7343 29.73 27.4534 30.0344C27.1726 30.3387 26.8318 30.5816 26.4525 30.7478C26.0732 30.914 25.6636 30.9999 25.2495 31H4.75049C4.33637 30.9999 3.92677 30.914 3.54746 30.7478C3.16815 30.5816 2.82736 30.3387 2.54653 30.0344C2.26571 29.73 2.05094 29.3708 1.91575 28.9794C1.78055 28.588 1.72786 28.1728 1.76099 27.76L2.96549 12.76V12.76Z" stroke="#403D39" stroke-width="2" stroke-linecap="round" stroke-linejoin="round"/>
<path d="M21 14.5V7C21 5.4087 20.3679 3.88258 19.2426 2.75736C18.1174 1.63214 16.5913 1 15 1C13.4087 1 11.8826 1.63214 10.7574 2.75736C9.63214 3.88258 9 5.4087 9 7V14.5" stroke="#403D39" stroke-width="2" stroke-linecap="round" stroke-linejoin="round"/>
</svg>
