<svg width="35" height="32" viewBox="0 0 35 32" fill="none" xmlns="http://www.w3.org/2000/svg">
<path d="M18.0646 0.164643L32.3794 8.4973C33.149 8.94529 33.7877 9.58734 34.2316 10.3593C34.6756 11.1313 34.9093 12.0063 34.9093 12.8968V27.8788C34.9093 28.9718 34.4751 30.02 33.7022 30.7929C32.9294 31.5658 31.8811 32 30.7881 32H4.12124C3.02822 32 1.97997 31.5658 1.20708 30.7929C0.434201 30.02 0 28.9718 0 27.8788V12.8968C6.07539e-05 12.0063 0.233726 11.1313 0.677667 10.3593C1.12161 9.58734 1.76029 8.94529 2.52996 8.4973L16.8437 0.164643C17.0289 0.0568108 17.2394 0 17.4537 0C17.668 0 17.8784 0.0568108 18.0636 0.164643H18.0646ZM32.4851 13.8006L18.0617 22.1401C17.8982 22.2346 17.7148 22.2896 17.5262 22.3008C17.3377 22.3119 17.1491 22.2788 16.9756 22.2041L16.8476 22.1401L2.42426 13.8016V27.8788C2.42426 28.8165 3.18451 29.5757 4.12124 29.5757H30.7881C31.2381 29.5757 31.6698 29.397 31.988 29.0787C32.3063 28.7605 32.4851 28.3288 32.4851 27.8788V13.8006ZM17.4547 2.61411L3.74984 10.5919C3.43275 10.7761 3.16317 11.0205 2.95081 11.3056L17.4547 19.6906L31.9585 11.3056C31.7432 11.016 31.4714 10.7732 31.1595 10.5919L17.4547 2.61411Z" fill="#EB5E28"/>
</svg>
