<svg width="43" height="42" viewBox="0 0 43 42" fill="none" xmlns="http://www.w3.org/2000/svg">
<path d="M21.0013 0C9.4221 0 0 9.41948 0 21C0 32.5805 9.4221 42 21.0013 42C32.5805 42 42.0026 32.5805 42.0026 21C42.0026 9.41948 32.5805 0 21.0013 0ZM21.0013 40.6012C10.1935 40.6012 1.4014 31.8078 1.4014 21C1.4014 10.1922 10.1935 1.39878 21.0013 1.39878C31.8091 1.39878 40.6012 10.1922 40.6012 21C40.6012 31.8078 31.8091 40.6012 21.0013 40.6012Z" fill="#FFFDF8"/>
<path d="M25.5855 9.21269H22.0912C17.6407 9.16816 17.0723 11.9225 17.0723 14.9034V17.071H15.1077C15.0189 17.0591 14.9286 17.0679 14.8438 17.0966C14.7589 17.1253 14.6818 17.1732 14.6185 17.2366C14.5551 17.2999 14.5072 17.377 14.4785 17.4619C14.4498 17.5467 14.441 17.6371 14.4529 17.7258V21.655C14.441 21.7438 14.4498 21.8341 14.4785 21.919C14.5072 22.0038 14.5551 22.0809 14.6185 22.1443C14.6818 22.2076 14.7589 22.2555 14.8438 22.2842C14.9286 22.3129 15.0189 22.3217 15.1077 22.3099H17.0723V32.1327C17.0614 32.2217 17.071 32.312 17.1003 32.3967C17.1296 32.4813 17.1779 32.5582 17.2414 32.6214C17.305 32.6846 17.3822 32.7324 17.467 32.7612C17.5519 32.79 17.6422 32.799 17.7311 32.7876H21.7323C22.1187 32.8321 22.4317 32.5191 22.3086 32.1327L22.3112 22.3099H25.5855C25.6743 22.3217 25.7646 22.3129 25.8495 22.2842C25.9343 22.2555 26.0114 22.2076 26.0748 22.1443C26.1381 22.0809 26.186 22.0038 26.2147 21.919C26.2434 21.8341 26.2522 21.7438 26.2403 21.655V17.7258C26.2522 17.6371 26.2434 17.5467 26.2147 17.4619C26.186 17.377 26.1381 17.2999 26.0748 17.2366C26.0114 17.1732 25.9343 17.1253 25.8495 17.0966C25.7646 17.0679 25.6743 17.0591 25.5855 17.071H22.3073L22.3112 15.1064C22.4382 14.2695 22.4382 14.4057 23.2149 14.4516H25.558C25.74 14.411 25.9339 14.4332 26.0701 14.3009C26.2063 14.1687 26.2849 13.9879 26.239 13.7967V9.86755C26.2511 9.77882 26.2426 9.68851 26.214 9.60364C26.1855 9.51876 26.1377 9.44163 26.0744 9.37825C26.0112 9.31487 25.9342 9.26696 25.8493 9.23824C25.7645 9.20952 25.6742 9.20078 25.5855 9.21269ZM24.8848 13.0685L23.2424 13.0056C21.2084 13.0056 21.0381 14.1097 21.0381 15.24L21.0329 17.7232C21.0327 17.8152 21.0507 17.9063 21.0858 17.9913C21.1208 18.0763 21.1723 18.1535 21.2373 18.2186C21.3022 18.2837 21.3794 18.3353 21.4643 18.3706C21.5493 18.4058 21.6403 18.4239 21.7323 18.4239H24.9306V20.9543H21.7349C21.5493 20.9543 21.3713 21.0279 21.2399 21.1591C21.1085 21.2902 21.0346 21.4681 21.0342 21.6537L21.0329 31.4779H18.382V21.655C18.382 21.2686 18.1188 20.9556 17.7311 20.9556H15.7626V18.4252H17.7311C17.823 18.4254 17.914 18.4074 17.999 18.3723C18.0839 18.3373 18.1611 18.2858 18.2262 18.2209C18.3572 18.0886 18.3807 17.9105 18.3807 17.7245V14.9021C18.3807 11.9657 18.974 10.5669 22.0898 10.5669H24.8835V13.0685H24.8848Z" fill="#FFFDF8"/>
</svg>
