<svg width="16" height="17" viewBox="0 0 16 17" fill="none" xmlns="http://www.w3.org/2000/svg">
<path d="M15.9999 3.2C15.9999 2.8 15.6499 2.5 15.2499 2.5H4.1499L5.1499 3.5H14.9999V3.8L10.1999 8.6L10.8999 9.3L15.6999 4.5C15.8999 4.3 15.9999 4.05 15.9999 3.8V3.25V3.2Z" fill="black"/>
<path d="M0.35 1.50005L1.35 2.50005H0.85C0.45 2.45005 0.05 2.75005 0 3.15005V3.70005C0 3.95005 0.0999999 4.20005 0.3 4.40005L6 10.1001V15.2501L6.95 15.6501V9.70005L1 3.75005V3.50005H2.35L9 10.15V16.6001L10 17.0001V11.15L15.05 16.2001L15.75 15.5001L1.05 0.800049L0.35 1.50005Z" fill="black"/>
</svg>
