<svg width="18" height="12" viewBox="0 0 18 12" fill="none" xmlns="http://www.w3.org/2000/svg">
<path d="M11.7 10.2C11.9387 10.2 12.1676 10.2948 12.3364 10.4636C12.5052 10.6324 12.6 10.8613 12.6 11.1C12.6 11.3387 12.5052 11.5676 12.3364 11.7364C12.1676 11.9052 11.9387 12 11.7 12H6.29998C6.06128 12 5.83236 11.9052 5.66358 11.7364C5.4948 11.5676 5.39998 11.3387 5.39998 11.1C5.39998 10.8613 5.4948 10.6324 5.66358 10.4636C5.83236 10.2948 6.06128 10.2 6.29998 10.2H11.7ZM14.1 5.1C14.3387 5.1 14.5676 5.19482 14.7364 5.3636C14.9052 5.53239 15 5.76131 15 6C15 6.23869 14.9052 6.46761 14.7364 6.6364C14.5676 6.80518 14.3387 6.9 14.1 6.9H3.89998C3.66128 6.9 3.43236 6.80518 3.26358 6.6364C3.0948 6.46761 2.99998 6.23869 2.99998 6C2.99998 5.76131 3.0948 5.53239 3.26358 5.3636C3.43236 5.19482 3.66128 5.1 3.89998 5.1H14.1ZM16.5 0C16.7387 0 16.9676 0.0948211 17.1364 0.263604C17.3052 0.432387 17.4 0.661305 17.4 0.9C17.4 1.13869 17.3052 1.36761 17.1364 1.5364C16.9676 1.70518 16.7387 1.8 16.5 1.8H1.49998C1.26128 1.8 1.03236 1.70518 0.863579 1.5364C0.694797 1.36761 0.599976 1.13869 0.599976 0.9C0.599976 0.661305 0.694797 0.432387 0.863579 0.263604C1.03236 0.0948211 1.26128 0 1.49998 0H16.5Z" fill="#403D39"/>
</svg>
