<svg width="43" height="42" viewBox="0 0 43 42" fill="none" xmlns="http://www.w3.org/2000/svg">
<path d="M21.0024 11.375C19.0988 11.375 17.2379 11.9395 15.6551 12.9971C14.0723 14.0547 12.8386 15.5579 12.1101 17.3167C11.3816 19.0754 11.191 21.0107 11.5624 22.8777C11.9338 24.7448 12.8505 26.4598 14.1965 27.8059C15.5426 29.152 17.2576 30.0687 19.1247 30.4401C20.9918 30.8114 22.927 30.6208 24.6858 29.8923C26.4445 29.1638 27.9477 27.9302 29.0053 26.3474C30.0629 24.7645 30.6274 22.9036 30.6274 21C30.6274 18.4473 29.6134 15.9991 27.8083 14.1941C26.0033 12.3891 23.5552 11.375 21.0024 11.375ZM21.0024 28.875C19.4449 28.875 17.9224 28.4131 16.6273 27.5478C15.3323 26.6825 14.3229 25.4526 13.7269 24.0136C13.1308 22.5747 12.9749 20.9913 13.2788 19.4637C13.5826 17.9361 14.3326 16.5329 15.434 15.4315C16.5353 14.3302 17.9385 13.5802 19.4661 13.2763C20.9937 12.9725 22.5771 13.1284 24.0161 13.7244C25.455 14.3205 26.6849 15.3298 27.5503 16.6249C28.4156 17.9199 28.8774 19.4425 28.8774 21C28.8774 23.0886 28.0478 25.0916 26.5709 26.5685C25.0941 28.0453 23.091 28.875 21.0024 28.875ZM30.6274 0H11.3774C8.3606 0 5.46733 1.19843 3.3341 3.33166C1.20088 5.46489 0.00244141 8.35816 0.00244141 11.375V30.625C0.00244141 32.1188 0.296664 33.5979 0.868312 34.978C1.43996 36.3581 2.27783 37.6121 3.3341 38.6683C5.46733 40.8016 8.3606 42 11.3774 42H30.6274C32.1212 42 33.6004 41.7058 34.9805 41.1341C36.3605 40.5625 37.6145 39.7246 38.6708 38.6683C39.727 37.6121 40.5649 36.3581 41.1366 34.978C41.7082 33.5979 42.0024 32.1188 42.0024 30.625V11.375C42.0024 9.88121 41.7082 8.40205 41.1366 7.02198C40.5649 5.6419 39.727 4.38793 38.6708 3.33166C37.6145 2.27539 36.3605 1.43752 34.9805 0.86587C33.6004 0.294223 32.1212 0 30.6274 0ZM40.2524 30.625C40.2524 33.1777 39.2384 35.6259 37.4333 37.4309C35.6283 39.2359 33.1802 40.25 30.6274 40.25H11.3774C8.82473 40.25 6.37658 39.2359 4.57154 37.4309C2.7665 35.6259 1.75244 33.1777 1.75244 30.625V11.375C1.75244 8.82229 2.7665 6.37414 4.57154 4.5691C6.37658 2.76406 8.82473 1.75 11.3774 1.75H30.6274C33.1802 1.75 35.6283 2.76406 37.4333 4.5691C39.2384 6.37414 40.2524 8.82229 40.2524 11.375V30.625ZM34.1274 9.625C34.1274 9.97112 34.0248 10.3095 33.8325 10.5972C33.6402 10.885 33.3669 11.1093 33.0471 11.2418C32.7274 11.3742 32.3755 11.4089 32.036 11.3414C31.6966 11.2739 31.3847 11.1072 31.14 10.8624C30.8953 10.6177 30.7286 10.3059 30.6611 9.96641C30.5935 9.62694 30.6282 9.27507 30.7607 8.9553C30.8931 8.63553 31.1174 8.36222 31.4052 8.16993C31.693 7.97764 32.0313 7.875 32.3774 7.875C32.8416 7.875 33.2867 8.05938 33.6149 8.38756C33.9431 8.71575 34.1274 9.16087 34.1274 9.625Z" fill="#FFFDF8"/>
</svg>
