<svg width="34" height="34" viewBox="0 0 34 34" fill="none" xmlns="http://www.w3.org/2000/svg">
<path fill-rule="evenodd" clip-rule="evenodd" d="M17 0.5C7.8875 0.5 0.5 7.8875 0.5 17C0.5 26.1125 7.8875 33.5 17 33.5C26.1125 33.5 33.5 26.1125 33.5 17C33.5 7.8875 26.1125 0.5 17 0.5ZM12.0605 20.3105C11.7776 20.5837 11.3987 20.7349 11.0054 20.7315C10.6121 20.7281 10.2359 20.5703 9.95777 20.2922C9.67966 20.0141 9.52191 19.6379 9.51849 19.2446C9.51507 18.8513 9.66626 18.4724 9.9395 18.1895L15.9395 12.1895C16.2208 11.9083 16.6023 11.7503 17 11.7503C17.3977 11.7503 17.7792 11.9083 18.0605 12.1895L24.0605 18.1895C24.3337 18.4724 24.4849 18.8513 24.4815 19.2446C24.4781 19.6379 24.3203 20.0141 24.0422 20.2922C23.7641 20.5703 23.3879 20.7281 22.9946 20.7315C22.6013 20.7349 22.2224 20.5837 21.9395 20.3105L17 15.371L12.0605 20.3105Z" fill="#EB5E28"/>
</svg>
