<svg width="18" height="18" viewBox="0 0 18 18" fill="none" xmlns="http://www.w3.org/2000/svg">
<path d="M4.11079 1.49409C4.04438 1.40866 3.96055 1.33833 3.86487 1.28779C3.76919 1.23725 3.66385 1.20764 3.55585 1.20094C3.44785 1.19423 3.33966 1.21059 3.23846 1.24891C3.13727 1.28723 3.04538 1.34665 2.96892 1.42321L1.80567 2.58759C1.26229 3.13209 1.06204 3.90271 1.29942 4.57884C2.28462 7.37737 3.88725 9.91819 5.98842 12.0128C8.08308 14.114 10.6239 15.7166 13.4224 16.7018C14.0985 16.9392 14.8692 16.739 15.4137 16.1956L16.5769 15.0323C16.6535 14.9559 16.7129 14.864 16.7512 14.7628C16.7895 14.6616 16.8059 14.5534 16.7992 14.4454C16.7925 14.3374 16.7629 14.2321 16.7123 14.1364C16.6618 14.0407 16.5915 13.9569 16.506 13.8905L13.9107 11.8722C13.8194 11.8014 13.7132 11.7523 13.6002 11.7285C13.4872 11.7047 13.3702 11.7069 13.2582 11.735L10.7944 12.3503C10.4656 12.4325 10.121 12.4282 9.79434 12.3377C9.46767 12.2472 9.16999 12.0736 8.93029 11.834L6.16729 9.06984C5.92741 8.83025 5.75366 8.53263 5.66297 8.20595C5.57228 7.87927 5.56774 7.53467 5.64979 7.20571L6.26629 4.74196C6.29431 4.62991 6.29652 4.51295 6.27274 4.39992C6.24897 4.28689 6.19983 4.18073 6.12904 4.08946L4.11079 1.49409ZM2.11954 0.574963C2.31641 0.378031 2.55292 0.225234 2.81337 0.126719C3.07382 0.0282038 3.35225 -0.0137759 3.63017 0.0035674C3.90809 0.0209107 4.17914 0.0971802 4.42532 0.227312C4.6715 0.357443 4.88718 0.538458 5.05804 0.758338L7.07629 3.35259C7.44642 3.82846 7.57692 4.44834 7.43067 5.03334L6.81529 7.49709C6.78348 7.6247 6.78519 7.75836 6.82028 7.88511C6.85537 8.01186 6.92263 8.12738 7.01554 8.22046L9.77967 10.9846C9.87286 11.0777 9.98857 11.1451 10.1155 11.1802C10.2425 11.2152 10.3764 11.2169 10.5042 11.1848L12.9668 10.5695C13.2555 10.4973 13.5568 10.4917 13.848 10.5531C14.1392 10.6145 14.4126 10.7412 14.6475 10.9238L17.2418 12.9421C18.1744 13.6677 18.2599 15.0458 17.4252 15.8795L16.2619 17.0427C15.4294 17.8752 14.1852 18.2408 13.0253 17.8325C10.0566 16.7879 7.36122 15.0884 5.13904 12.86C2.91074 10.6381 1.21123 7.9431 0.166542 4.97484C-0.240708 3.81609 0.124917 2.57071 0.957417 1.73821L2.12067 0.574963H2.11954Z" fill="#EB5E28"/>
<path fill-rule="evenodd" clip-rule="evenodd" d="M0.957417 1.73821C0.957092 1.73854 0.956768 1.73886 0.956444 1.73919C0.956288 1.73934 0.9566 1.73903 0.956444 1.73919C0.710148 1.98578 0.504317 2.26901 0.347826 2.57496C-0.0239866 3.3019 -0.11991 4.1598 0.166542 4.97484C0.166722 4.97535 0.166903 4.97586 0.167084 4.97638C0.167198 4.9767 0.167312 4.97702 0.167425 4.97735C1.21216 7.94454 2.91128 10.6386 5.13886 12.8598C5.13892 12.8598 5.1388 12.8597 5.13886 12.8598C5.13967 12.8606 5.14067 12.8616 5.14148 12.8624C7.36299 15.0894 10.0572 16.788 13.0245 17.8322C13.0247 17.8323 13.0242 17.8321 13.0245 17.8322C13.0245 17.8322 13.0254 17.8325 13.0255 17.8325C14.1846 18.2406 15.428 17.8756 16.2605 17.0441C16.2608 17.0439 16.2611 17.0436 16.2614 17.0433C16.2615 17.0431 16.2612 17.0435 16.2614 17.0433L17.4241 15.8806L17.4252 15.8795C17.6293 15.6756 17.7784 15.4392 17.8735 15.1878C17.9728 14.9253 18.0133 14.6465 17.9963 14.3711C17.9793 14.0958 17.9047 13.824 17.7738 13.5756C17.6483 13.3374 17.471 13.1206 17.2429 12.9429C17.2428 12.9429 17.2429 12.943 17.2429 12.9429C17.2426 12.9427 17.2421 12.9423 17.2418 12.9421L14.6479 10.9241C14.6476 10.9239 14.647 10.9234 14.6467 10.9232C14.4119 10.7409 14.1388 10.6144 13.848 10.5531C13.8478 10.553 13.8482 10.5531 13.848 10.5531C13.557 10.4918 13.2555 10.4973 12.967 10.5694C12.967 10.5694 12.9671 10.5694 12.967 10.5694L10.5042 11.1848C10.5039 11.1849 10.5044 11.1848 10.5042 11.1848C10.5041 11.1849 10.5032 11.1851 10.5032 11.1851C10.3757 11.2169 10.2422 11.2152 10.1155 11.1802C10.1154 11.1801 10.1157 11.1802 10.1155 11.1802C9.98885 11.145 9.87288 11.0776 9.77984 10.9848C9.77978 10.9847 9.7799 10.9848 9.77984 10.9848L7.01557 8.22049C6.92266 8.12741 6.85537 8.01186 6.82028 7.88511C6.82024 7.88497 6.82032 7.88525 6.82028 7.88511C6.78533 7.75857 6.78351 7.62473 6.81523 7.49734C6.81525 7.49725 6.81521 7.49742 6.81523 7.49734L7.43067 5.03334C7.50367 4.74118 7.50771 4.44013 7.44729 4.15286C7.38686 3.86553 7.26201 3.5918 7.07735 3.35396C7.07704 3.35355 7.07673 3.35315 7.07642 3.35275C7.07638 3.3527 7.07646 3.3528 7.07642 3.35275L5.05804 0.758338C5.01566 0.703831 4.9701 0.651177 4.92242 0.601635C4.77798 0.451542 4.61026 0.325069 4.42532 0.227312C4.42526 0.227277 4.42539 0.227346 4.42532 0.227312C4.17919 0.097243 3.90802 0.0209061 3.63017 0.0035674C3.35229 -0.0137738 3.07389 0.0281936 2.81347 0.126683C2.81344 0.126695 2.8135 0.126671 2.81347 0.126683C2.55351 0.225011 2.31731 0.377449 2.12067 0.573838C2.12048 0.574025 2.12085 0.573651 2.12067 0.573838C2.12053 0.573975 2.11983 0.574674 2.11969 0.57481L0.957417 1.73821ZM1.80623 2.58702C1.2635 3.13088 1.06252 3.90088 1.29857 4.57642C1.29851 4.57625 1.29863 4.57659 1.29857 4.57642C1.29879 4.57706 1.29919 4.5782 1.29942 4.57884C2.28426 7.37633 3.88605 9.91629 5.98606 12.0105C5.98685 12.0113 5.98763 12.0121 5.98842 12.0128C5.98839 12.0128 5.98844 12.0129 5.98842 12.0128C8.08307 14.1139 10.6239 15.7166 13.4224 16.7018C14.0983 16.9387 14.8694 16.7387 15.4137 16.1956L16.5769 15.0323C16.5767 15.0325 16.5771 15.0321 16.5769 15.0323C16.5771 15.0321 16.5779 15.0314 16.5781 15.0312C16.6541 14.955 16.7131 14.8635 16.7512 14.7628C16.7895 14.6616 16.8059 14.5534 16.7992 14.4454C16.7925 14.3374 16.7629 14.2321 16.7123 14.1364C16.6618 14.0407 16.5915 13.9569 16.506 13.8905L16.5048 13.8895L13.9107 11.8722C13.8195 11.8017 13.713 11.7522 13.6002 11.7285C13.6002 11.7285 13.6002 11.7285 13.6002 11.7285C13.4872 11.7048 13.3702 11.7069 13.2582 11.735C13.2582 11.7349 13.2582 11.735 13.2582 11.735L10.7944 12.3503C10.4659 12.4324 10.1218 12.4282 9.79551 12.338C9.79512 12.3379 9.79473 12.3378 9.79434 12.3377C9.46786 12.2472 9.17034 12.0739 8.93072 11.8344C8.93086 11.8345 8.93058 11.8342 8.93072 11.8344L6.16729 9.06984C6.16748 9.07002 6.1671 9.06965 6.16729 9.06984C6.16703 9.06958 6.16621 9.06875 6.16595 9.06849C5.92676 8.82914 5.75349 8.53202 5.66297 8.20595C5.66301 8.20609 5.66293 8.2058 5.66297 8.20595C5.57246 7.87964 5.56778 7.53504 5.64961 7.20645L6.26616 4.74248C6.29418 4.63042 6.29652 4.51295 6.27274 4.39992C6.24897 4.2869 6.19984 4.18076 6.12907 4.0895C6.12908 4.08951 6.12906 4.08949 6.12907 4.0895L4.11136 1.49482C4.09961 1.4797 4.08673 1.46431 4.0739 1.45015C4.01432 1.38437 3.94361 1.32938 3.86487 1.28779C3.8649 1.28781 3.86484 1.28777 3.86487 1.28779C3.76921 1.23728 3.66382 1.20764 3.55585 1.20094C3.55598 1.20095 3.55572 1.20093 3.55585 1.20094C3.44798 1.1943 3.33953 1.21063 3.23846 1.24891C3.23864 1.24884 3.23828 1.24898 3.23846 1.24891C3.13748 1.28724 3.04482 1.34721 2.96849 1.42364L1.80623 2.58702Z" fill="#EB5E28"/>
</svg>
