<svg width="14" height="14" viewBox="0 0 14 14" fill="none" xmlns="http://www.w3.org/2000/svg">
<path d="M6.47266 0.671875H7.52734C7.62109 0.671875 7.66797 0.71875 7.66797 0.8125V13.1875C7.66797 13.2812 7.62109 13.3281 7.52734 13.3281H6.47266C6.37891 13.3281 6.33203 13.2812 6.33203 13.1875V0.8125C6.33203 0.71875 6.37891 0.671875 6.47266 0.671875Z" fill="#403D39"/>
<path d="M1.09375 6.33203H12.9062C13 6.33203 13.0469 6.37891 13.0469 6.47266V7.52734C13.0469 7.62109 13 7.66797 12.9062 7.66797H1.09375C1 7.66797 0.953125 7.62109 0.953125 7.52734V6.47266C0.953125 6.37891 1 6.33203 1.09375 6.33203Z" fill="#403D39"/>
</svg>
