<svg width="20" height="18" viewBox="0 0 20 18" fill="none" xmlns="http://www.w3.org/2000/svg">
<path d="M10.0001 17.3201C5.39205 17.3201 1.68005 13.6081 1.68005 9.00009C1.68005 6.95209 2.44805 5.03209 3.79205 3.49609L4.75205 4.32809C3.60005 5.60809 2.96005 7.27209 2.96005 9.00009C2.96005 12.9041 6.09605 16.0401 10.0001 16.0401C11.0241 16.0401 11.9841 15.8481 12.9441 15.4001L13.4561 16.5521C12.3681 17.0641 11.2161 17.3201 10.0001 17.3201Z" fill="#403D39"/>
<path d="M16.2079 14.5679L15.2479 13.7359C16.3999 12.4559 17.0399 10.7919 17.0399 9.0639C17.0399 5.1599 13.9039 2.0239 9.99994 2.0239C8.97594 2.0239 8.01594 2.2159 7.05594 2.6639L6.54395 1.5119C7.63195 0.999896 8.78395 0.743896 9.99994 0.743896C14.6079 0.743896 18.3199 4.4559 18.3199 9.0639C18.3199 11.0479 17.5519 13.0319 16.2079 14.5679Z" fill="#403D39"/>
<path d="M5.52002 8.35999H4.24002V4.51999H0.400024V3.23999H5.52002V8.35999Z" fill="#403D39"/>
<path d="M19.6 14.7599H14.48V9.63989H15.76V13.4799H19.6V14.7599Z" fill="#403D39"/>
</svg>
