<svg width="16" height="17" viewBox="0 0 16 17" fill="none" xmlns="http://www.w3.org/2000/svg">
<path d="M9.5 3C9.5 2.60218 9.34196 2.22064 9.06066 1.93934C8.77936 1.65804 8.39782 1.5 8 1.5C7.60218 1.5 7.22064 1.65804 6.93934 1.93934C6.65804 2.22064 6.5 2.60218 6.5 3H5.5C5.5 2.33696 5.76339 1.70107 6.23223 1.23223C6.70107 0.763392 7.33696 0.5 8 0.5C8.66304 0.5 9.29893 0.763392 9.76777 1.23223C10.2366 1.70107 10.5 2.33696 10.5 3H15C15.1326 3 15.2598 3.05268 15.3536 3.14645C15.4473 3.24021 15.5 3.36739 15.5 3.5C15.5 3.63261 15.4473 3.75979 15.3536 3.85355C15.2598 3.94732 15.1326 4 15 4H14.446L13.15 15.23C13.0936 15.7174 12.86 16.167 12.4936 16.4934C12.1272 16.8198 11.6537 17.0001 11.163 17H4.837C4.34635 17.0001 3.87279 16.8198 3.50642 16.4934C3.14005 16.167 2.90642 15.7174 2.85 15.23L1.553 4H1C0.882974 4.00004 0.769643 3.95903 0.679741 3.88411C0.58984 3.80919 0.529064 3.70511 0.508 3.59L0.5 3.5C0.5 3.36739 0.552679 3.24021 0.646447 3.14645C0.740215 3.05268 0.867392 3 1 3H9.5ZM13.438 4H2.561L3.843 15.115C3.87122 15.3588 3.9881 15.5837 4.1714 15.7469C4.35469 15.9101 4.59159 16.0002 4.837 16H11.163C11.4082 15.9999 11.6449 15.9097 11.828 15.7465C12.0111 15.5834 12.1278 15.3586 12.156 15.115L13.438 4ZM6.5 6.5C6.745 6.5 6.95 6.655 6.992 6.859L7 6.938V13.063C7 13.304 6.776 13.5 6.5 13.5C6.255 13.5 6.05 13.345 6.008 13.141L6 13.062V6.939C6 6.697 6.224 6.501 6.5 6.501V6.5ZM9.5 6.5C9.745 6.5 9.95 6.655 9.992 6.859L10 6.938V13.063C10 13.304 9.776 13.5 9.5 13.5C9.255 13.5 9.05 13.345 9.008 13.141L9 13.062V6.939C9 6.697 9.224 6.501 9.5 6.501V6.5Z" fill="#403D39"/>
</svg>
