<svg width="17" height="17" viewBox="0 0 17 17" fill="none" xmlns="http://www.w3.org/2000/svg">
<path d="M6.59865 9.60353e-08C7.85305 -0.000213852 9.08154 0.357053 10.1402 1.02994C11.1988 1.70284 12.0438 2.66349 12.5761 3.79935C13.1084 4.93521 13.306 6.19924 13.1457 7.44336C12.9854 8.68748 12.4739 9.86015 11.6711 10.824L16.6235 15.7752C16.7298 15.881 16.7926 16.0228 16.7995 16.1727C16.8064 16.3225 16.757 16.4695 16.6609 16.5847C16.5648 16.6999 16.4291 16.7749 16.2805 16.795C16.1318 16.8151 15.981 16.7788 15.8579 16.6932L15.7739 16.6248L10.8227 11.6724C10.0081 12.3505 9.04219 12.8225 8.00667 13.0484C6.97115 13.2742 5.89645 13.2474 4.87348 12.9702C3.85051 12.6929 2.90936 12.1734 2.12963 11.4555C1.3499 10.7376 0.754528 9.8425 0.39387 8.84587C0.0332116 7.84924 -0.0821231 6.78042 0.0576206 5.7298C0.197364 4.67917 0.588076 3.67766 1.19671 2.80996C1.80534 1.94226 2.61399 1.2339 3.55427 0.744789C4.49454 0.255683 5.53877 0.000217197 6.59865 9.60353e-08ZM6.59865 1.2C5.16648 1.2 3.79297 1.76893 2.78027 2.78162C1.76758 3.79432 1.19865 5.16783 1.19865 6.6C1.19865 8.03217 1.76758 9.40568 2.78027 10.4184C3.79297 11.4311 5.16648 12 6.59865 12C8.03082 12 9.40433 11.4311 10.417 10.4184C11.4297 9.40568 11.9986 8.03217 11.9986 6.6C11.9986 5.16783 11.4297 3.79432 10.417 2.78162C9.40433 1.76893 8.03082 1.2 6.59865 1.2Z" fill="#FFFDF8"/>
</svg>
