<svg width="20" height="12" viewBox="0 0 20 12" fill="none" xmlns="http://www.w3.org/2000/svg">
<path d="M13.625 9.375L13.625 1.875C13.625 1.77554 13.6645 1.68016 13.7348 1.60983C13.8052 1.53951 13.9005 1.5 14 1.5C14.0995 1.5 14.1948 1.53951 14.2652 1.60983C14.3355 1.68016 14.375 1.77554 14.375 1.875L14.375 9.375C14.375 9.47446 14.3355 9.56984 14.2652 9.64016C14.1948 9.71049 14.0995 9.75 14 9.75C13.9005 9.75 13.8052 9.71049 13.7348 9.64016C13.6645 9.56984 13.625 9.47446 13.625 9.375Z" fill="black"/>
<path d="M14 9.21981L17.1095 6.10957C17.1799 6.03916 17.2754 5.9996 17.375 5.9996C17.4746 5.9996 17.5701 6.03916 17.6405 6.10957C17.7109 6.17998 17.7505 6.27549 17.7505 6.37507C17.7505 6.47465 17.7109 6.57015 17.6405 6.64057L14.2655 10.0156C14.2306 10.0505 14.1893 10.0782 14.1437 10.0971C14.0981 10.116 14.0493 10.1257 14 10.1257C13.9507 10.1257 13.9018 10.116 13.8563 10.0971C13.8107 10.0782 13.7693 10.0505 13.7345 10.0156L10.3595 6.64057C10.2891 6.57015 10.2495 6.47465 10.2495 6.37507C10.2495 6.27549 10.2891 6.17998 10.3595 6.10957C10.4299 6.03916 10.5254 5.9996 10.625 5.9996C10.7246 5.9996 10.8201 6.03916 10.8905 6.10957L14 9.21981Z" fill="black"/>
<path d="M6.375 2.625L6.375 10.125C6.375 10.2245 6.33549 10.3198 6.26516 10.3902C6.19484 10.4605 6.09946 10.5 6 10.5C5.90054 10.5 5.80516 10.4605 5.73483 10.3902C5.66451 10.3198 5.625 10.2245 5.625 10.125L5.625 2.625C5.625 2.52554 5.66451 2.43016 5.73483 2.35984C5.80516 2.28951 5.90054 2.25 6 2.25C6.09946 2.25 6.19484 2.28951 6.26516 2.35984C6.33549 2.43016 6.375 2.52554 6.375 2.625Z" fill="black"/>
<path d="M6.00002 2.78019L2.89052 5.89043C2.82011 5.96084 2.7246 6.0004 2.62502 6.0004C2.52544 6.0004 2.42994 5.96084 2.35952 5.89043C2.28911 5.82002 2.24955 5.72451 2.24955 5.62493C2.24955 5.52535 2.28911 5.42985 2.35952 5.35943L5.73452 1.98444C5.76935 1.94952 5.81073 1.92181 5.85629 1.9029C5.90185 1.884 5.95069 1.87427 6.00002 1.87427C6.04934 1.87427 6.09818 1.884 6.14374 1.9029C6.1893 1.92181 6.23068 1.94952 6.26552 1.98444L9.64051 5.35943C9.71093 5.42985 9.75049 5.52535 9.75049 5.62493C9.75049 5.72451 9.71093 5.82002 9.64051 5.89043C9.5701 5.96084 9.4746 6.0004 9.37501 6.0004C9.27543 6.0004 9.17993 5.96084 9.10952 5.89043L6.00002 2.78019Z" fill="black"/>
</svg>
