<svg width="32" height="30" viewBox="0 0 32 30" fill="none" xmlns="http://www.w3.org/2000/svg">
<path fill-rule="evenodd" clip-rule="evenodd" d="M0 8.925C0 4.26218 3.81579 0.5 8.5 0.5C10.9189 0.5 13.0195 1.80175 14.4412 2.98008C15.0787 3.50848 15.6074 4.0351 16 4.45935C16.3926 4.0351 16.9213 3.50848 17.5588 2.98008C18.9805 1.80175 21.0811 0.5 23.5 0.5C28.1842 0.5 32 4.26218 32 8.925C32 10.7251 31.6398 13.6953 29.5952 17.2424C27.5538 20.7838 23.8649 24.8459 17.2917 28.8869L17.2878 28.8893C16.8997 29.1254 16.4542 29.2503 16 29.2503C15.5458 29.2503 15.1003 29.1254 14.7122 28.8893L14.7083 28.8869C8.13513 24.8459 4.44616 20.7838 2.40482 17.2424C0.360178 13.6953 0 10.7251 0 8.925ZM15.1986 6.59812L15.1945 6.59277L15.1716 6.56303C15.1502 6.53543 15.1165 6.49271 15.0713 6.43703C14.9808 6.32559 14.8444 6.16277 14.6671 5.96573C14.3114 5.57034 13.7972 5.04398 13.1649 4.51992C11.872 3.44825 10.2226 2.5 8.5 2.5C4.90121 2.5 2 5.38582 2 8.925C2 10.4354 2.29607 13.0489 4.13756 16.2436C5.98211 19.4436 9.40852 23.2806 15.7534 27.1817C15.8278 27.2266 15.9131 27.2503 16 27.2503C16.0869 27.2503 16.1722 27.2266 16.2466 27.1817C22.5915 23.2806 26.0179 19.4436 27.8624 16.2436C29.7039 13.0489 30 10.4354 30 8.925C30 5.38582 27.0988 2.5 23.5 2.5C21.7774 2.5 20.128 3.44825 18.8351 4.51992C18.2028 5.04398 17.6886 5.57034 17.3329 5.96573C17.1556 6.16277 17.0192 6.32559 16.9287 6.43703C16.8835 6.49271 16.8498 6.53543 16.8284 6.56303L16.8055 6.59277L16.8014 6.59812L16.8011 6.59853C16.6123 6.85119 16.3154 7 16 7C15.6846 7 15.3877 6.85119 15.1989 6.59853L15.1986 6.59812Z" fill="#403D39"/>
</svg>
