<svg width="43" height="33" viewBox="0 0 43 33" fill="none" xmlns="http://www.w3.org/2000/svg">
<path d="M27.6524 15.6139L18.3191 9.3917C18.2021 9.3138 18.0662 9.26904 17.9259 9.26219C17.7855 9.25535 17.6459 9.28666 17.5219 9.35281C17.3976 9.41746 17.2937 9.51528 17.2216 9.63541C17.1495 9.75554 17.1121 9.89328 17.1136 10.0334V22.4778C17.1121 22.6179 17.1495 22.7556 17.2216 22.8758C17.2937 22.9959 17.3976 23.0937 17.5219 23.1584C17.6364 23.2176 17.7625 23.2508 17.8913 23.2556C18.045 23.2584 18.1953 23.2106 18.3191 23.1195L27.6524 16.8973C27.7609 16.8289 27.8503 16.7343 27.9122 16.6221C27.9741 16.5098 28.0066 16.3838 28.0066 16.2556C28.0066 16.1274 27.9741 16.0013 27.9122 15.8891C27.8503 15.7769 27.7609 15.6822 27.6524 15.6139ZM18.6691 21.0195V11.4917L25.8247 16.2556L18.6691 21.0195ZM40.933 5.13337C40.7723 4.54051 40.4762 3.99306 40.0679 3.53416C39.6596 3.07526 39.1504 2.71745 38.5802 2.48892C32.008 -0.0388544 21.4497 3.4653e-05 21.0024 3.4653e-05C20.5552 3.4653e-05 9.99689 -0.0388544 3.42466 2.48892C2.85452 2.71745 2.34524 3.07526 1.93696 3.53416C1.52867 3.99306 1.23254 4.54051 1.07189 5.13337C0.585775 7.01948 0.00244141 10.4806 0.00244141 16.2556C0.00244141 22.0306 0.585775 25.4917 1.07189 27.3778C1.23254 27.9707 1.52867 28.5181 1.93696 28.977C2.34524 29.4359 2.85452 29.7937 3.42466 30.0223C9.99689 32.55 20.5552 32.5111 21.0024 32.5111H21.1386C22.4802 32.5111 32.3386 32.4334 38.5802 30.0223C39.1504 29.7937 39.6596 29.4359 40.0679 28.977C40.4762 28.5181 40.7723 27.9707 40.933 27.3778C41.4191 25.4917 42.0024 22.0306 42.0024 16.2556C42.0024 10.4806 41.4191 7.01948 40.933 5.13337ZM39.4163 26.9889C39.3229 27.3429 39.1475 27.6699 38.9043 27.9435C38.6611 28.2171 38.3569 28.4296 38.0163 28.5639C31.7163 30.9945 21.1191 30.9556 21.0024 30.9556C20.8858 30.9556 10.2886 30.9945 3.98855 28.5639C3.648 28.4296 3.34383 28.2171 3.10063 27.9435C2.85742 27.6699 2.682 27.3429 2.58855 26.9889C2.12189 25.1806 1.558 21.8556 1.558 16.2556C1.558 10.6556 2.12189 7.33059 2.58855 5.52226C2.682 5.16831 2.85742 4.84132 3.10063 4.56771C3.34383 4.2941 3.648 4.08156 3.98855 3.94726C10.2886 1.5167 20.8858 1.55559 21.0024 1.55559C21.1191 1.55559 31.7163 1.5167 38.0163 3.94726C38.3569 4.08156 38.6611 4.2941 38.9043 4.56771C39.1475 4.84132 39.3229 5.16831 39.4163 5.52226C39.883 7.33059 40.4469 10.6556 40.4469 16.2556C40.4469 21.8556 39.883 25.1806 39.4163 26.9889Z" fill="#FFFDF8"/>
</svg>
